<mxfile host="app.diagrams.net" agent="Mozilla/5.0 (Windows NT 10.0; Win64; x64) AppleWebKit/537.36 (KHTML, like Gecko) Chrome/140.0.0.0 Safari/537.36" version="28.2.5">
  <diagram name="Page-1" id="wNgv3LU53BIYbwtRCLPT">
    <mxGraphModel dx="1895" dy="1002" grid="1" gridSize="10" guides="1" tooltips="1" connect="1" arrows="1" fold="1" page="1" pageScale="1" pageWidth="850" pageHeight="1100" math="0" shadow="0">
      <root>
        <mxCell id="0" />
        <mxCell id="1" parent="0" />
        <mxCell id="mDl8DoPaSXY-WUQ-JjEF-4" value="" style="edgeStyle=orthogonalEdgeStyle;rounded=0;orthogonalLoop=1;jettySize=auto;html=1;" edge="1" parent="1" source="mDl8DoPaSXY-WUQ-JjEF-1" target="mDl8DoPaSXY-WUQ-JjEF-2">
          <mxGeometry relative="1" as="geometry" />
        </mxCell>
        <mxCell id="mDl8DoPaSXY-WUQ-JjEF-1" value="START" style="strokeWidth=2;html=1;shape=mxgraph.flowchart.terminator;whiteSpace=wrap;fontSize=14;" vertex="1" parent="1">
          <mxGeometry x="320" y="30" width="105" height="50" as="geometry" />
        </mxCell>
        <mxCell id="mDl8DoPaSXY-WUQ-JjEF-5" value="" style="edgeStyle=orthogonalEdgeStyle;rounded=0;orthogonalLoop=1;jettySize=auto;html=1;" edge="1" parent="1" source="mDl8DoPaSXY-WUQ-JjEF-2" target="mDl8DoPaSXY-WUQ-JjEF-3">
          <mxGeometry relative="1" as="geometry" />
        </mxCell>
        <mxCell id="mDl8DoPaSXY-WUQ-JjEF-2" value="define matrix a&lt;div&gt;as coefficient&lt;/div&gt;&lt;div&gt;matrix&lt;/div&gt;" style="verticalLabelPosition=middle;verticalAlign=middle;html=1;shape=hexagon;perimeter=hexagonPerimeter2;arcSize=6;size=0.27;labelPosition=center;align=center;fontSize=14;" vertex="1" parent="1">
          <mxGeometry x="287.5" y="140" width="170" height="80" as="geometry" />
        </mxCell>
        <mxCell id="mDl8DoPaSXY-WUQ-JjEF-21" value="" style="edgeStyle=orthogonalEdgeStyle;rounded=0;orthogonalLoop=1;jettySize=auto;html=1;" edge="1" parent="1" source="mDl8DoPaSXY-WUQ-JjEF-3" target="mDl8DoPaSXY-WUQ-JjEF-20">
          <mxGeometry relative="1" as="geometry" />
        </mxCell>
        <mxCell id="mDl8DoPaSXY-WUQ-JjEF-3" value="define matrix b&lt;div&gt;as constant&lt;/div&gt;&lt;div&gt;matrix&lt;/div&gt;" style="verticalLabelPosition=middle;verticalAlign=middle;html=1;shape=hexagon;perimeter=hexagonPerimeter2;arcSize=6;size=0.27;labelPosition=center;align=center;fontSize=14;" vertex="1" parent="1">
          <mxGeometry x="287.5" y="280" width="170" height="80" as="geometry" />
        </mxCell>
        <mxCell id="mDl8DoPaSXY-WUQ-JjEF-10" value="" style="edgeStyle=orthogonalEdgeStyle;rounded=0;orthogonalLoop=1;jettySize=auto;html=1;" edge="1" parent="1" source="mDl8DoPaSXY-WUQ-JjEF-7" target="mDl8DoPaSXY-WUQ-JjEF-9">
          <mxGeometry relative="1" as="geometry" />
        </mxCell>
        <mxCell id="mDl8DoPaSXY-WUQ-JjEF-26" style="edgeStyle=orthogonalEdgeStyle;rounded=0;orthogonalLoop=1;jettySize=auto;html=1;exitX=1;exitY=0.5;exitDx=0;exitDy=0;exitPerimeter=0;entryX=1;entryY=0.5;entryDx=0;entryDy=0;" edge="1" parent="1" source="mDl8DoPaSXY-WUQ-JjEF-7" target="mDl8DoPaSXY-WUQ-JjEF-24">
          <mxGeometry relative="1" as="geometry">
            <Array as="points">
              <mxPoint x="600" y="640" />
              <mxPoint x="600" y="1570" />
            </Array>
          </mxGeometry>
        </mxCell>
        <mxCell id="mDl8DoPaSXY-WUQ-JjEF-7" value="i = 0&lt;div&gt;i &amp;lt; matrix row?&lt;/div&gt;" style="strokeWidth=2;html=1;shape=mxgraph.flowchart.decision;whiteSpace=wrap;fontSize=14;" vertex="1" parent="1">
          <mxGeometry x="295.93" y="570" width="153.13" height="140" as="geometry" />
        </mxCell>
        <mxCell id="mDl8DoPaSXY-WUQ-JjEF-12" value="" style="edgeStyle=orthogonalEdgeStyle;rounded=0;orthogonalLoop=1;jettySize=auto;html=1;" edge="1" parent="1" source="mDl8DoPaSXY-WUQ-JjEF-9" target="mDl8DoPaSXY-WUQ-JjEF-11">
          <mxGeometry relative="1" as="geometry" />
        </mxCell>
        <mxCell id="mDl8DoPaSXY-WUQ-JjEF-9" value="augmented_row = {}" style="rounded=1;whiteSpace=wrap;html=1;absoluteArcSize=1;arcSize=0;strokeWidth=2;fontSize=14;" vertex="1" parent="1">
          <mxGeometry x="292.5" y="770" width="160" height="80" as="geometry" />
        </mxCell>
        <mxCell id="mDl8DoPaSXY-WUQ-JjEF-14" value="" style="edgeStyle=orthogonalEdgeStyle;rounded=0;orthogonalLoop=1;jettySize=auto;html=1;" edge="1" parent="1" source="mDl8DoPaSXY-WUQ-JjEF-11" target="mDl8DoPaSXY-WUQ-JjEF-13">
          <mxGeometry relative="1" as="geometry" />
        </mxCell>
        <mxCell id="mDl8DoPaSXY-WUQ-JjEF-18" style="edgeStyle=orthogonalEdgeStyle;rounded=0;orthogonalLoop=1;jettySize=auto;html=1;exitX=1;exitY=0.5;exitDx=0;exitDy=0;exitPerimeter=0;entryX=1;entryY=0.5;entryDx=0;entryDy=0;" edge="1" parent="1" source="mDl8DoPaSXY-WUQ-JjEF-11" target="mDl8DoPaSXY-WUQ-JjEF-16">
          <mxGeometry relative="1" as="geometry">
            <Array as="points">
              <mxPoint x="520" y="980" />
              <mxPoint x="520" y="1290" />
            </Array>
          </mxGeometry>
        </mxCell>
        <mxCell id="mDl8DoPaSXY-WUQ-JjEF-11" value="j = 0&lt;div&gt;j &amp;lt; matrix col?&lt;/div&gt;" style="strokeWidth=2;html=1;shape=mxgraph.flowchart.decision;whiteSpace=wrap;fontSize=14;" vertex="1" parent="1">
          <mxGeometry x="295.93" y="910" width="153.13" height="140" as="geometry" />
        </mxCell>
        <mxCell id="mDl8DoPaSXY-WUQ-JjEF-13" value="push a[i][j] to&lt;div&gt;augmented_row&lt;/div&gt;" style="rounded=1;whiteSpace=wrap;html=1;absoluteArcSize=1;arcSize=0;strokeWidth=2;fontSize=14;" vertex="1" parent="1">
          <mxGeometry x="292.5" y="1110" width="160" height="80" as="geometry" />
        </mxCell>
        <mxCell id="mDl8DoPaSXY-WUQ-JjEF-15" style="edgeStyle=orthogonalEdgeStyle;rounded=0;orthogonalLoop=1;jettySize=auto;html=1;exitX=0;exitY=0.5;exitDx=0;exitDy=0;entryX=0;entryY=0.5;entryDx=0;entryDy=0;entryPerimeter=0;" edge="1" parent="1" source="mDl8DoPaSXY-WUQ-JjEF-13" target="mDl8DoPaSXY-WUQ-JjEF-11">
          <mxGeometry relative="1" as="geometry">
            <Array as="points">
              <mxPoint x="250" y="1150" />
              <mxPoint x="250" y="980" />
            </Array>
          </mxGeometry>
        </mxCell>
        <mxCell id="mDl8DoPaSXY-WUQ-JjEF-19" value="" style="edgeStyle=orthogonalEdgeStyle;rounded=0;orthogonalLoop=1;jettySize=auto;html=1;" edge="1" parent="1" source="mDl8DoPaSXY-WUQ-JjEF-16" target="mDl8DoPaSXY-WUQ-JjEF-17">
          <mxGeometry relative="1" as="geometry" />
        </mxCell>
        <mxCell id="mDl8DoPaSXY-WUQ-JjEF-16" value="push b[i][0] to&lt;div&gt;augmented_row&lt;/div&gt;" style="rounded=1;whiteSpace=wrap;html=1;absoluteArcSize=1;arcSize=0;strokeWidth=2;fontSize=14;" vertex="1" parent="1">
          <mxGeometry x="292.5" y="1250" width="160" height="80" as="geometry" />
        </mxCell>
        <mxCell id="mDl8DoPaSXY-WUQ-JjEF-17" value="push augmented_row&lt;div&gt;to augmented_matrix&lt;/div&gt;" style="rounded=1;whiteSpace=wrap;html=1;absoluteArcSize=1;arcSize=0;strokeWidth=2;fontSize=14;" vertex="1" parent="1">
          <mxGeometry x="292.5" y="1390" width="160" height="80" as="geometry" />
        </mxCell>
        <mxCell id="mDl8DoPaSXY-WUQ-JjEF-22" value="" style="edgeStyle=orthogonalEdgeStyle;rounded=0;orthogonalLoop=1;jettySize=auto;html=1;" edge="1" parent="1" source="mDl8DoPaSXY-WUQ-JjEF-20" target="mDl8DoPaSXY-WUQ-JjEF-7">
          <mxGeometry relative="1" as="geometry" />
        </mxCell>
        <mxCell id="mDl8DoPaSXY-WUQ-JjEF-20" value="augmented_matrix = {}" style="rounded=1;whiteSpace=wrap;html=1;absoluteArcSize=1;arcSize=0;strokeWidth=2;fontSize=14;" vertex="1" parent="1">
          <mxGeometry x="292.5" y="430" width="160" height="80" as="geometry" />
        </mxCell>
        <mxCell id="mDl8DoPaSXY-WUQ-JjEF-23" style="edgeStyle=orthogonalEdgeStyle;rounded=0;orthogonalLoop=1;jettySize=auto;html=1;exitX=0;exitY=0.5;exitDx=0;exitDy=0;entryX=0;entryY=0.5;entryDx=0;entryDy=0;entryPerimeter=0;" edge="1" parent="1" source="mDl8DoPaSXY-WUQ-JjEF-17" target="mDl8DoPaSXY-WUQ-JjEF-7">
          <mxGeometry relative="1" as="geometry">
            <Array as="points">
              <mxPoint x="160" y="1430" />
              <mxPoint x="160" y="640" />
            </Array>
          </mxGeometry>
        </mxCell>
        <mxCell id="mDl8DoPaSXY-WUQ-JjEF-27" value="" style="edgeStyle=orthogonalEdgeStyle;rounded=0;orthogonalLoop=1;jettySize=auto;html=1;" edge="1" parent="1" source="mDl8DoPaSXY-WUQ-JjEF-24" target="mDl8DoPaSXY-WUQ-JjEF-25">
          <mxGeometry relative="1" as="geometry" />
        </mxCell>
        <mxCell id="mDl8DoPaSXY-WUQ-JjEF-24" value="push augmented_row&lt;div&gt;to augmented_matrix&lt;/div&gt;" style="rounded=1;whiteSpace=wrap;html=1;absoluteArcSize=1;arcSize=0;strokeWidth=2;fontSize=14;" vertex="1" parent="1">
          <mxGeometry x="292.5" y="1530" width="160" height="80" as="geometry" />
        </mxCell>
        <mxCell id="mDl8DoPaSXY-WUQ-JjEF-25" value="END" style="strokeWidth=2;html=1;shape=mxgraph.flowchart.terminator;whiteSpace=wrap;fontSize=14;" vertex="1" parent="1">
          <mxGeometry x="320" y="1670" width="105" height="50" as="geometry" />
        </mxCell>
      </root>
    </mxGraphModel>
  </diagram>
</mxfile>
